# xmcd
#
# Track frame offsets: 
#        150
#        13241
#        24966
#        38995
#        50635
#        61160
#        74139
#        83700
#        98807
#        112797
#        131970
#        144855
#        162002
#        173356
#        184871
#        196345
#        210642
#        223338
#        238001
#        252518
#
# Disc length: 3540 seconds
#
# Revision: 2
# Processed by: cddbd v1.5.2PL0 Copyright (c) Steve Scherf et al.
# Submitted via: ExactAudioCopy v1.3
#
DISCID=1e0dd214
DTITLE=Bobbie Gentry - The Very Best of Bobbie Gentry
DYEAR=1972
DGENRE=Country
TTITLE0=I'll Never Fall in Love Again
TTITLE1=Something in the Way He Moves
TTITLE2=Raindrops Keep Falling on My Head
TTITLE3=All I Have to Do Is Dream
TTITLE4=Walk Right Back
TTITLE5=Season Come Season Go
TTITLE6=Son of a Preacher Man
TTITLE7=You've Made Me So Very Happy
TTITLE8=Mississippi Delta
TTITLE9=Ode to Billie Jo
TTITLE10=Tobacco Road
TTITLE11=The Fool on the Hill
TTITLE12=Eleanore Rigby
TTITLE13=Here, There and Everywhere
TTITLE14=Where's the Playground Johnny
TTITLE15=Gentle on My Mind
TTITLE16=In the Ghetto
TTITLE17=Little Green Apples
TTITLE18=My Elusive Dreams
TTITLE19=Morning Glory
EXTD=
EXTT0=
EXTT1=
EXTT2=
EXTT3=
EXTT4=
EXTT5=
EXTT6=
EXTT7=
EXTT8=
EXTT9=
EXTT10=
EXTT11=
EXTT12=
EXTT13=
EXTT14=
EXTT15=
EXTT16=
EXTT17=
EXTT18=
EXTT19=
PLAYORDER=
